<svg width="38" height="53" viewBox="0 0 38 53" fill="none" xmlns="http://www.w3.org/2000/svg">
<path fill-rule="evenodd" clip-rule="evenodd" d="M14.8869 49.0801C1.83398 37.0961 0.279297 35.6709 0.279297 14.4559C0.279297 14.0996 0.506022 13.7757 0.829916 13.6138C2.02832 13.1279 3.19434 12.7393 4.36035 12.383C5.29964 12.0915 6.27132 11.8 7.243 11.5409V5.09539C7.243 4.99822 7.243 4.90105 7.27539 4.83627C7.43734 4.35043 7.92318 4.09132 8.40902 4.25326L16.2472 6.74724C16.2148 6.61768 16.2148 6.48813 16.2472 6.35857L16.6035 4.80388L15.4051 3.76742C15.2432 3.60548 15.1136 3.41114 15.0812 3.15203C15.0488 2.66619 15.4051 2.21273 15.891 2.18035L17.478 2.0184L18.1258 0.560879C18.2554 0.334153 18.4173 0.172207 18.6117 0.0750386C19.0651 -0.119297 19.5833 0.0750386 19.7777 0.528489L20.4255 1.98601L22.0125 2.14796C22.2393 2.18035 22.4336 2.27751 22.5955 2.43946C22.9194 2.79574 22.8871 3.37875 22.5308 3.70264L21.3324 4.80388L21.6563 6.29379C21.6886 6.42335 21.6886 6.5853 21.6886 6.71485L29.4945 4.22087C29.5916 4.18848 29.6888 4.18848 29.786 4.18848C30.2718 4.18848 30.6929 4.57716 30.6929 5.09539V11.5085C31.6646 11.7676 32.6039 12.0267 33.5755 12.3506C34.7416 12.7393 35.9076 13.1603 37.0736 13.6138C37.4299 13.7433 37.7214 14.0672 37.7214 14.4883C37.7214 35.7033 36.1667 37.1284 23.1138 49.1125C22.0125 50.1166 20.8465 51.1854 19.6481 52.319C19.2918 52.6429 18.7736 52.6429 18.4173 52.319C17.1541 51.153 15.9881 50.0842 14.8869 49.0801Z" fill="white"/>
<path fill-rule="evenodd" clip-rule="evenodd" d="M1.18652 14.4556C13.041 9.69434 24.9279 9.69434 36.7824 14.4556C36.7824 37.0309 34.9686 36.7718 19.0007 51.6385C3.00033 36.7718 1.18652 37.0309 1.18652 14.4556Z" fill="black"/>
<path fill-rule="evenodd" clip-rule="evenodd" d="M33.2192 13.16C33.2192 33.9864 32.4743 35.0228 19.0003 50.0191C5.49398 35.0228 4.74902 34.0188 4.74902 13.16C14.2391 10.1478 23.7292 10.1478 33.2192 13.16Z" fill="white"/>
<path fill-rule="evenodd" clip-rule="evenodd" d="M8.15039 5.09497L18.9684 8.56063L29.7865 5.09497L29.7541 14.6498C29.7217 32.2696 26.0941 37.6786 18.9684 48.8206C11.8428 37.6786 8.21517 32.2696 8.18278 14.6498L8.15039 5.09497Z" fill="#F02626"/>
<path fill-rule="evenodd" clip-rule="evenodd" d="M18.9679 0.917236L19.8425 2.8606L21.9478 3.05493L20.3607 4.48006L20.8141 6.55298L18.9679 5.48413L17.1541 6.55298L17.6076 4.48006L16.0205 3.05493L18.1258 2.8606L18.9679 0.917236Z" fill="#F02626"/>
<path d="M28.9403 34.7003C33.0201 29.2637 31.9202 21.5491 26.4836 17.4692C21.047 13.3894 13.3323 14.4892 9.25246 19.9259C5.17261 25.3625 6.2725 33.0772 11.7091 37.157C17.1458 41.2369 24.8604 40.137 28.9403 34.7003Z" fill="#D0D0D0"/>
<path fill-rule="evenodd" clip-rule="evenodd" d="M29.591 20.8366C29.1052 28.2537 27.7448 33.1769 25.4452 37.8733C23.599 39.007 21.4289 39.6224 19.0968 39.6224C16.6353 39.6224 14.3356 38.9098 12.3923 37.6466C10.2222 33.0797 8.89421 28.2861 8.37598 21.1928C10.5137 17.5004 14.53 15.0065 19.0968 15.0065C23.5342 15.0065 27.4209 17.3385 29.591 20.8366Z" fill="#AA4430"/>
<path d="M19.0006 13.3223C22.2719 13.3223 25.3489 14.5531 27.519 16.7231C29.6567 18.8608 31.0818 21.9378 31.0818 25.2415C31.0818 28.5129 29.6891 31.7194 27.5514 33.8895C25.4137 36.0272 22.2395 37.3228 18.9682 37.3228C15.6969 37.3228 12.7171 35.8005 10.547 33.6628C5.9477 29.0635 5.9477 21.4844 10.5794 16.8527C12.7495 14.6502 15.7293 13.3223 19.0006 13.3223Z" fill="white"/>
<path d="M27.292 16.5287C27.3568 16.5935 27.3892 16.6259 27.4539 16.6906C29.5916 18.8283 31.0168 21.9053 31.0168 25.209C31.0168 28.4804 29.624 31.6869 27.4863 33.857C25.3486 35.9947 22.1745 37.2902 18.9032 37.2902C15.6318 37.2902 12.652 35.768 10.4819 33.6303C8.44141 31.5897 7.34017 28.9986 7.08105 26.3103C7.59928 27.8973 8.50619 29.3549 9.73698 30.618C11.7775 32.6586 14.563 34.0837 17.6724 34.0837C20.7817 34.0837 23.7616 32.8853 25.7697 30.8448C27.8102 28.8042 29.1058 25.792 29.1058 22.6827C29.1382 20.4478 28.458 18.3101 27.292 16.5287Z" fill="#DADADA"/>
<path d="M30.2391 19.9945C30.1743 19.865 30.1095 19.7354 30.0448 19.6058C29.3646 18.3103 28.4901 17.1766 27.4212 16.205C26.9678 15.8163 26.5143 15.4276 25.9961 15.1037C24.6681 14.1968 23.1135 13.549 21.494 13.2251C20.7166 13.0632 19.9069 12.9984 19.0972 12.9984C17.8664 12.9984 16.7004 13.1927 15.5667 13.5166C14.9513 13.711 14.3359 13.9377 13.7529 14.2292C13.4614 14.3912 13.1375 14.5531 12.846 14.715C11.9715 15.2333 11.1618 15.8487 10.4492 16.5612C8.18197 18.7961 6.75684 21.9055 6.75684 25.3387C6.75684 28.772 8.18197 31.8814 10.4492 34.1163C11.1618 34.8288 11.9715 35.4442 12.846 35.9625C13.1375 36.1244 13.429 36.2863 13.7529 36.4483C14.3359 36.7398 14.9189 36.9665 15.5667 37.1609C16.7004 37.4848 17.8664 37.6791 19.0972 37.6791C19.9069 37.6791 20.7166 37.6143 21.494 37.4524C23.1458 37.1285 24.6681 36.4807 25.9961 35.5738C26.4819 35.2499 26.9678 34.8612 27.4212 34.4725C28.4901 33.5009 29.3646 32.3672 30.0448 31.0717C30.1095 30.9421 30.1743 30.8125 30.2391 30.683C31.0164 29.0635 31.4375 27.2821 31.4375 25.4035C31.4051 23.3954 30.9841 21.614 30.2391 19.9945ZM30.0124 22.4885C30.0448 23.0391 30.0448 23.6221 30.0124 24.2051C29.9476 25.1444 29.818 26.1161 29.6561 26.8611C28.9111 26.9906 28.1662 27.1202 27.3888 27.2173C26.9354 27.2821 26.4496 27.3145 25.9637 27.3793C25.1216 27.4441 24.3119 27.5088 23.5021 27.5088C22.8219 27.5088 22.1418 27.5088 21.4616 27.4764C19.9717 27.4441 18.4494 27.3469 16.8947 27.1849C16.4412 26.5372 15.9878 25.7274 15.5343 24.8529C15.1133 24.0756 14.7246 23.2011 14.3683 22.3589C14.757 22.2294 15.1133 22.0998 15.5343 21.9703C17.3158 21.4196 19.3563 21.0634 21.4616 20.9662C22.9515 20.869 24.4738 20.9338 25.9637 21.0957C26.4496 21.1605 26.903 21.2253 27.3888 21.3225C28.2634 21.4844 29.1379 21.7111 29.9476 22.0026C30.0124 22.1646 30.0124 22.3265 30.0124 22.4885ZM26.8706 16.8851C26.9678 16.9499 27.0326 17.0471 27.0973 17.1119C27.1945 17.209 27.2917 17.3386 27.4212 17.4358C28.5225 18.6018 29.3322 19.8973 29.8504 21.452C29.0731 21.1929 28.2634 20.9986 27.4212 20.8366C26.9678 20.7395 26.4819 20.6747 25.9961 20.6423C24.5062 20.4804 22.9839 20.4804 21.494 20.6099C19.3563 20.7719 17.3158 21.1929 15.5667 21.7111C15.1133 21.8407 14.6922 22.0027 14.3036 22.1322C14.1092 21.6788 13.9473 21.2253 13.7853 20.7719L13.7529 20.6747C13.4938 19.8973 13.2671 19.1524 13.1375 18.4398C13.1699 18.4398 13.1699 18.4398 13.2023 18.4074C13.3967 18.2779 13.591 18.1159 13.7853 17.9864C14.3359 17.5977 14.9513 17.2414 15.5991 16.9175C17.4129 16.0106 19.4858 15.46 21.5264 15.4276C23.0811 15.3952 24.6357 15.7191 26.0285 16.3993C26.2876 16.5289 26.5791 16.6908 26.8706 16.8851ZM12.9108 15.5248C12.9432 15.4924 12.9756 15.4924 13.008 15.46C13.2671 15.2981 13.4938 15.1685 13.7529 15.0389C14.3359 14.7474 14.9189 14.4883 15.5667 14.294C16.6356 13.9377 17.8016 13.7758 19 13.7758C19.8421 13.7758 20.6843 13.8729 21.494 14.0349C23.0487 14.3588 24.5062 14.9742 25.737 15.9135C24.409 15.3304 22.9515 15.1037 21.494 15.1361C19.4535 15.2009 17.3805 15.7515 15.5667 16.626C14.9189 16.9499 14.3359 17.2738 13.7529 17.6625C13.5262 17.8244 13.2995 17.9864 13.0728 18.1483C12.8784 17.1442 12.8136 16.2697 12.9108 15.5248ZM10.4492 17.5977C10.5788 17.4358 10.7407 17.2738 10.9027 17.1119C11.4209 16.5936 12.0039 16.1078 12.6193 15.7191C12.5545 16.5289 12.6517 17.4681 12.8784 18.5046C13.0404 19.2496 13.2671 20.0593 13.5586 20.8366C13.6234 21.0634 13.7205 21.2577 13.7853 21.4844C14.3036 22.8772 14.9513 24.2699 15.5991 25.4683C15.9878 26.1809 16.3765 26.8287 16.7651 27.3793C16.3765 27.9299 15.9878 28.4805 15.5991 28.9987C15.2428 29.517 14.8866 30.0352 14.5627 30.5858C14.3036 30.4239 14.0444 30.2619 13.7853 30.0676C13.4614 29.8409 13.1699 29.6141 12.8784 29.355C12.0039 28.5777 11.2266 27.6384 10.6112 26.5372C10.5788 26.4724 10.514 26.3752 10.4816 26.3104C9.57471 24.5938 8.95931 22.5857 8.66781 20.286C9.12126 19.3143 9.73665 18.4074 10.4492 17.5977ZM7.56657 25.2092C7.56657 23.6545 7.89046 22.1646 8.44108 20.8042C8.76498 23.0715 9.41276 25.0472 10.3521 26.7315C10.3844 26.7963 10.4168 26.861 10.4816 26.9258C11.1618 28.0595 11.9391 29.0635 12.8784 29.8733C13.1699 30.1324 13.4614 30.3591 13.7853 30.5858C13.9797 30.7478 14.2064 30.8773 14.4007 31.0069C14.174 31.3632 13.9797 31.7194 13.7853 32.0757C13.5262 32.5616 13.2671 33.015 13.008 33.5656L12.8784 33.5009C11.9715 32.9826 11.1942 32.3996 10.4816 31.6871C10.1577 31.3632 9.83382 30.9745 9.54232 30.5858C8.66781 29.3874 8.02002 27.9623 7.63135 26.2457C7.56657 25.9218 7.56657 25.5655 7.56657 25.2092ZM10.9027 33.3065C10.7407 33.1446 10.6112 32.9826 10.4492 32.8207C9.34798 31.5899 8.50586 30.1 8.02002 28.4481C8.3763 29.2903 8.79736 30.0352 9.2832 30.7154C9.63949 31.2012 10.0282 31.6547 10.4492 32.0757C11.1618 32.7883 11.9715 33.3713 12.846 33.8895L12.8784 33.9219L12.846 34.0191C12.7489 34.2458 12.6517 34.4725 12.5869 34.6669C11.9715 34.2782 11.4209 33.8248 10.9027 33.3065ZM15.5667 36.1244C14.9513 35.9301 14.3359 35.6709 13.7529 35.3794C13.4614 35.2175 13.1375 35.0556 12.846 34.8612L12.8136 34.8288L12.846 34.7317C13.1051 34.0515 13.429 33.3713 13.7529 32.7235C14.0444 32.1729 14.3359 31.6223 14.6598 31.0717C14.9513 30.5858 15.2428 30.0676 15.5667 29.5818C16.0202 28.8692 16.506 28.1566 16.9919 27.4764C18.5142 27.606 20.0041 27.7032 21.4616 27.7356C21.7531 27.7356 22.077 27.7356 22.3685 27.768C22.1094 28.7072 21.8179 29.6465 21.4616 30.5534C20.5547 32.8207 19.2591 34.926 17.2834 36.5131C16.7004 36.4159 16.1174 36.3187 15.5667 36.1244ZM21.494 36.3835C20.328 36.6426 19.1296 36.7398 17.9635 36.6426C19.4858 35.3471 20.6519 33.3713 21.494 31.3632C22.0122 30.1324 22.4009 28.9016 22.6924 27.8003C22.9839 27.8003 23.2754 27.8003 23.5669 27.8003C24.409 27.8003 25.2188 27.768 26.0285 27.7032C26.3524 27.6708 26.6763 27.6384 27.0326 27.606C27.1621 29.355 26.7734 31.0069 26.0285 32.4968C25.5103 33.5333 24.8625 34.5373 24.0527 35.4442C23.2106 35.8653 22.3685 36.1892 21.494 36.3835ZM29.7857 28.9987C29.2674 30.4563 28.4577 31.849 27.4212 32.9826C27.0002 33.4685 26.5143 33.8895 25.9961 34.2782C25.6722 34.5373 25.3483 34.7317 24.992 34.9584C25.3807 34.4725 25.7046 33.9867 25.9961 33.4685C27.0002 31.6871 27.4212 29.7437 27.2593 27.5736H27.3888C28.1986 27.4764 28.9759 27.3793 29.7533 27.2173C29.8504 27.8003 29.818 28.4481 29.7857 28.9987ZM30.1095 27.9623C30.1095 27.6708 30.0772 27.3793 30.0124 27.0878C30.0124 27.0554 30.0124 26.9906 29.98 26.9582L30.0124 26.8287C30.1095 26.4076 30.1743 25.9865 30.2067 25.5655C30.2391 25.2092 30.2715 24.8205 30.3039 24.4642C30.3039 24.2051 30.3363 23.946 30.3363 23.6869C30.4011 24.1727 30.4334 24.691 30.4334 25.2092C30.4334 25.9865 30.3687 26.7315 30.2067 27.4764C30.2067 27.6384 30.1743 27.8003 30.1095 27.9623Z" fill="black"/>
</svg>
