<svg width="16" height="17" viewBox="0 0 16 17" fill="none" xmlns="http://www.w3.org/2000/svg">
<path opacity="0.4" d="M11.7333 0.5H4.26667C1.54311 0.5 0 2.04311 0 4.76667V12.2333C0 14.9498 1.536 16.5 4.26667 16.5H11.7333C14.4569 16.5 16 14.9498 16 12.2333V4.76667C16 2.04311 14.4569 0.5 11.7333 0.5Z" fill="#5577FF"/>
<path d="M10.6562 9.06672H8.59942V11.1056C8.59942 11.4339 8.33096 11.7 7.9998 11.7C7.66865 11.7 7.40019 11.4339 7.40019 11.1056V9.06672H5.34344C5.03454 9.03501 4.7998 8.77696 4.7998 8.46911C4.7998 8.16125 5.03454 7.9032 5.34344 7.87149H7.39374V5.83897C7.42573 5.53275 7.68603 5.30005 7.99658 5.30005C8.30713 5.30005 8.56743 5.53275 8.59942 5.83897V7.87149H10.6562C10.9651 7.9032 11.1998 8.16125 11.1998 8.46911C11.1998 8.77696 10.9651 9.03501 10.6562 9.06672Z" fill="#5577FF"/>
</svg>
