<svg width="20" height="21" viewBox="0 0 20 21" fill="none" xmlns="http://www.w3.org/2000/svg">
<rect x="0.470703" y="0.97168" width="19.0567" height="19.0567" rx="5.01493" fill="#173477"/>
<path d="M8.62109 11.8789L11.3793 9.12073" stroke="white" stroke-width="0.752239" stroke-linecap="round" stroke-linejoin="round"/>
<path d="M8.85094 9.58043C8.97789 9.58043 9.08079 9.47752 9.08079 9.35058C9.08079 9.22364 8.97789 9.12073 8.85094 9.12073C8.724 9.12073 8.62109 9.22364 8.62109 9.35058C8.62109 9.47752 8.724 9.58043 8.85094 9.58043Z" fill="white" stroke="white" stroke-width="0.752239" stroke-linecap="round" stroke-linejoin="round"/>
<path d="M11.1478 11.8793C11.2748 11.8793 11.3777 11.7763 11.3777 11.6494C11.3777 11.5225 11.2748 11.4196 11.1478 11.4196C11.0209 11.4196 10.918 11.5225 10.918 11.6494C10.918 11.7763 11.0209 11.8793 11.1478 11.8793Z" fill="white" stroke="white" stroke-width="0.752239" stroke-linecap="round" stroke-linejoin="round"/>
<path d="M6.78142 8.29349C6.78142 8.02527 6.88797 7.76803 7.07763 7.57836C7.26729 7.3887 7.52453 7.28215 7.79276 7.28215H8.25246C8.5195 7.28199 8.77564 7.17623 8.965 6.98794L9.28679 6.66615C9.38077 6.57163 9.49251 6.49663 9.61559 6.44545C9.73866 6.39427 9.87063 6.36792 10.0039 6.36792C10.1372 6.36792 10.2692 6.39427 10.3923 6.44545C10.5153 6.49663 10.6271 6.57163 10.7211 6.66615L11.0428 6.98794C11.2322 7.17623 11.4883 7.28199 11.7554 7.28215H12.2151C12.4833 7.28215 12.7406 7.3887 12.9302 7.57836C13.1199 7.76803 13.2264 8.02527 13.2264 8.29349V8.75319C13.2266 9.02023 13.3323 9.27637 13.5206 9.46573L13.8424 9.78752C13.9369 9.88151 14.0119 9.99325 14.0631 10.1163C14.1143 10.2394 14.1407 10.3714 14.1407 10.5047C14.1407 10.6379 14.1143 10.7699 14.0631 10.893C14.0119 11.0161 13.9369 11.1278 13.8424 11.2218L13.5206 11.5436C13.3323 11.7329 13.2266 11.9891 13.2264 12.2561V12.7158C13.2264 12.984 13.1199 13.2413 12.9302 13.4309C12.7406 13.6206 12.4833 13.7272 12.2151 13.7272H11.7554C11.4883 13.7273 11.2322 13.8331 11.0428 14.0214L10.7211 14.3432C10.6271 14.4377 10.5153 14.5127 10.3923 14.5639C10.2692 14.615 10.1372 14.6414 10.0039 14.6414C9.87063 14.6414 9.73866 14.615 9.61559 14.5639C9.49251 14.5127 9.38077 14.4377 9.28679 14.3432L8.965 14.0214C8.77564 13.8331 8.5195 13.7273 8.25246 13.7272H7.79276C7.52453 13.7272 7.26729 13.6206 7.07763 13.4309C6.88797 13.2413 6.78142 12.984 6.78142 12.7158V12.2561C6.78126 11.9891 6.6755 11.7329 6.48721 11.5436L6.16542 11.2218C6.0709 11.1278 5.9959 11.0161 5.94472 10.893C5.89354 10.7699 5.86719 10.6379 5.86719 10.5047C5.86719 10.3714 5.89354 10.2394 5.94472 10.1163C5.9959 9.99325 6.0709 9.88151 6.16542 9.78752L6.48721 9.46573C6.6755 9.27637 6.78126 9.02023 6.78142 8.75319V8.29349" stroke="white" stroke-width="0.752239" stroke-linecap="round" stroke-linejoin="round"/>
</svg>
