<svg width="22" height="22" viewBox="0 0 22 22" fill="none" xmlns="http://www.w3.org/2000/svg">
<path d="M20.6237 16.8153C20.5076 16.5595 20.3191 16.3433 20.0816 16.1933L16.8472 13.883C16.6316 13.7344 16.4025 13.6065 16.163 13.5009C15.9749 13.4197 15.7724 13.3774 15.5676 13.3765C15.3226 13.3825 15.0836 13.453 14.8745 13.5809C14.6106 13.7264 14.3732 13.9157 14.1725 14.1407C13.9491 14.36 13.6621 14.503 13.3524 14.5493C13.0428 14.5956 12.7265 14.5427 12.4487 14.3984C10.5784 13.3659 9.03822 11.8257 8.00575 9.95542C7.8423 9.67535 7.77632 9.34899 7.81813 9.02742C7.85993 8.70586 8.00716 8.40722 8.23678 8.17825C8.44089 7.97096 8.61712 7.73796 8.76104 7.48515C8.89044 7.27678 8.96106 7.03729 8.96542 6.79205C8.95866 6.58604 8.9103 6.38353 8.82324 6.1967C8.72672 5.95091 8.59502 5.72043 8.43226 5.51248L6.16637 2.31357C6.00164 2.07673 5.77808 1.88686 5.5177 1.76265C5.26651 1.64907 4.99363 1.59146 4.71797 1.59382C4.33811 1.59955 3.96324 1.6811 3.61533 1.83369C3.26742 1.98628 2.9535 2.20684 2.69199 2.48241C2.19907 2.93684 1.81357 3.49536 1.56349 4.1174C1.33005 4.71782 1.21246 5.35702 1.21694 6.00121C1.21005 7.10646 1.44987 8.19932 1.91893 9.20012C3.35844 12.2302 8.88544 18.166 13.1329 20.4052C14.1217 20.9005 15.2173 21.1446 16.3229 21.1161C16.9745 21.1205 17.6207 20.9967 18.2245 20.7518C18.8407 20.4926 19.3904 20.0977 19.8328 19.5966C20.1019 19.2988 20.3264 18.9636 20.4993 18.6014C20.6535 18.2668 20.7353 17.9034 20.7392 17.5351C20.7453 17.2901 20.7062 17.0461 20.6237 16.8153Z" stroke="#8E949A" stroke-width="1.33288" stroke-linecap="round" stroke-linejoin="round"/>
<path d="M13.2031 1.61182C16.3132 1.61182 20.7472 4.99733 20.7472 9.15592" stroke="#8E949A" stroke-width="1.33288" stroke-linecap="round" stroke-linejoin="round"/>
<path d="M12.582 5.00586C14.5636 5.00586 17.3804 7.15624 17.3804 9.80423" stroke="#8E949A" stroke-width="1.33288" stroke-linecap="round" stroke-linejoin="round"/>
<path d="M12.4473 8.30225C12.8716 8.33288 13.2709 8.51473 13.5725 8.81475C13.8742 9.11478 14.0582 9.51307 14.0911 9.93725" stroke="#8E949A" stroke-width="1.33288" stroke-linecap="round" stroke-linejoin="round"/>
</svg>
