<svg width="16" height="13" viewBox="0 0 16 13" fill="none" xmlns="http://www.w3.org/2000/svg">
<rect x="6.95605" y="12.7119" width="4.87385" height="1.024" rx="0.512" transform="rotate(-90 6.95605 12.7119)" fill="#5B6897"/>
<rect x="4.75664" y="12.112" width="5.27314" height="0.4" rx="0.2" stroke="#5B6897" stroke-width="0.4"/>
<path fill-rule="evenodd" clip-rule="evenodd" d="M12.0144 0.679932V4.51225C12.0144 6.52581 10.3821 8.15812 8.36854 8.15812H7.00134C4.98778 8.15812 3.35547 6.52581 3.35547 4.51225V0.679932H12.0144Z" stroke="#5B6897" stroke-width="0.8"/>
<path fill-rule="evenodd" clip-rule="evenodd" d="M12.0146 1.73046H13.4918C14.2679 1.73046 14.8971 2.45222 14.8971 3.34256V3.9471C14.8971 4.83744 14.2679 5.5592 13.4918 5.5592H12.0146V1.73046Z" stroke="#5B6897" stroke-width="0.8"/>
<path fill-rule="evenodd" clip-rule="evenodd" d="M3.35547 1.73046H1.87831C1.10218 1.73046 0.47301 2.45222 0.47301 3.34256V3.9471C0.47301 4.83744 1.10218 5.5592 1.87831 5.5592H3.35547L3.35547 1.73046Z" stroke="#5B6897" stroke-width="0.8"/>
</svg>
