<svg width="27" height="28" viewBox="0 0 27 28" fill="none" xmlns="http://www.w3.org/2000/svg">
<path opacity="0.15" fill-rule="evenodd" clip-rule="evenodd" d="M26.2546 6.70038C25.8666 3.76242 23.6118 1.50771 20.6739 1.1197C18.6541 0.852946 16.1276 0.62622 13.3743 0.62622C10.621 0.62622 8.09443 0.852945 6.07459 1.1197C3.13664 1.50771 0.881956 3.76242 0.493982 6.70038C0.227174 8.72014 0.000491632 11.2467 0.000491511 14C0.000491391 16.7533 0.227174 19.2798 0.493981 21.2997C0.881955 24.2376 3.13664 26.4923 6.07459 26.8803C8.09443 27.1471 10.621 27.3738 13.3743 27.3738C16.1276 27.3738 18.6541 27.1471 20.6739 26.8803C23.6118 26.4923 25.8666 24.2376 26.2546 21.2997C26.5213 19.2798 26.748 16.7533 26.748 14C26.748 11.2467 26.5213 8.72014 26.2546 6.70038Z" fill="#4B78FE"/>
<path d="M9.74805 12.6262L13.8771 16.6262L17.748 12.6262" stroke="#1289C4" stroke-width="1.5" stroke-linecap="round" stroke-linejoin="round"/>
</svg>
