<svg width="22" height="22" viewBox="0 0 22 22" fill="none" xmlns="http://www.w3.org/2000/svg">
<path d="M20.4236 13.2639L18.3611 11.2014C18.2321 11.0726 18.0573 11.0001 17.875 11.0001C17.6927 11.0001 17.5179 11.0726 17.3889 11.2014L11 17.5904V20.625H14.0346L20.4236 14.2361C20.5524 14.1071 20.6249 13.9323 20.6249 13.75C20.6249 13.5677 20.5524 13.3929 20.4236 13.2639ZM13.4654 19.25H12.375V18.1596L15.8125 14.7221L16.9029 15.8125L13.4654 19.25ZM17.875 14.8404L16.7846 13.75L17.875 12.6596L18.9654 13.75L17.875 14.8404ZM5.5 11H12.375V12.375H5.5V11ZM5.5 6.875H13.75V8.25H5.5V6.875Z" fill="#9896A3"/>
<path d="M17.875 2.75C17.875 2.38533 17.7301 2.03559 17.4723 1.77773C17.2144 1.51987 16.8647 1.375 16.5 1.375H2.75001C2.38533 1.375 2.0356 1.51987 1.77773 1.77773C1.51987 2.03559 1.37501 2.38533 1.37501 2.75V11.6875C1.3734 13.0586 1.74527 14.4043 2.45069 15.5801C3.15611 16.7558 4.16845 17.7172 5.379 18.3611L8.93751 20.2586V18.7L6.02663 17.1476C5.03638 16.6205 4.20825 15.8339 3.63102 14.872C3.0538 13.9101 2.74924 12.8093 2.75001 11.6875V2.75H16.5V8.9375H17.875V2.75Z" fill="#9896A3"/>
</svg>
