<svg width="19" height="20" viewBox="0 0 19 20" fill="none" xmlns="http://www.w3.org/2000/svg">
<circle cx="9.63541" cy="9.92545" r="8.86084" fill="#1289C4" stroke="white" stroke-width="0.896789"/>
<path d="M13.3888 8.10237C13.5744 8.10237 13.7263 7.95051 13.7263 7.7649V6.82673C13.7263 6.64112 13.5744 6.48926 13.3888 6.48926H5.96442C5.77882 6.48926 5.62695 6.64112 5.62695 6.82673V12.4794V12.4828V13.1341H5.64383C5.68095 13.2826 5.80581 13.3939 5.96442 13.3939H13.3888C13.5474 13.3939 13.6757 13.2826 13.7094 13.1341H13.7263V13.0598C13.7263 13.0598 13.7263 13.0598 13.7263 13.0565V9.10129C13.7263 8.91568 13.5744 8.76382 13.3888 8.76382C13.2032 8.76382 13.0513 8.91568 13.0513 9.10129V11.521L11.364 9.40501C11.3032 9.32739 11.2121 9.28352 11.1176 9.27677C11.0164 9.27002 10.9286 9.30715 10.8578 9.37802L8.78231 11.4703L7.62816 10.3061C7.55729 10.2352 7.45942 10.1981 7.36156 10.2082C7.26369 10.2149 7.17257 10.2656 7.1152 10.3432L6.3019 11.4535V7.16757H13.0513V7.76828C13.0513 7.95051 13.2032 8.10237 13.3888 8.10237Z" fill="white"/>
<path d="M7.93457 8.6389C7.93457 9.09111 8.30241 9.45896 8.75463 9.45896C9.20684 9.45896 9.57468 9.09111 9.57468 8.6389C9.57468 8.18669 9.20684 7.81885 8.75463 7.81885C8.30241 7.81885 7.93457 8.18669 7.93457 8.6389Z" fill="white"/>
</svg>
