<svg width="31" height="30" viewBox="0 0 31 30" fill="none" xmlns="http://www.w3.org/2000/svg">
<path d="M27.7569 12.5519H26.75V12.5H15.5V17.5H22.5644C21.5338 20.4106 18.7644 22.5 15.5 22.5C11.3581 22.5 8 19.1419 8 15C8 10.8581 11.3581 7.5 15.5 7.5C17.4119 7.5 19.1513 8.22125 20.4756 9.39937L24.0112 5.86375C21.7787 3.78312 18.7925 2.5 15.5 2.5C8.59688 2.5 3 8.09688 3 15C3 21.9031 8.59688 27.5 15.5 27.5C22.4031 27.5 28 21.9031 28 15C28 14.1619 27.9137 13.3438 27.7569 12.5519Z" fill="#FFC107"/>
<path d="M4.44141 9.18188L8.54828 12.1938C9.65953 9.4425 12.3508 7.5 15.5002 7.5C17.412 7.5 19.1514 8.22125 20.4758 9.39937L24.0114 5.86375C21.7789 3.78312 18.7927 2.5 15.5002 2.5C10.6989 2.5 6.53516 5.21062 4.44141 9.18188Z" fill="#FF3D00"/>
<path d="M15.5002 27.4999C18.7289 27.4999 21.6627 26.2643 23.8808 24.2549L20.0121 20.9812C18.7149 21.9677 17.1299 22.5012 15.5002 22.4999C12.2489 22.4999 9.48832 20.4268 8.44832 17.5337L4.37207 20.6743C6.44082 24.7224 10.6421 27.4999 15.5002 27.4999Z" fill="#1976D2"/>
<path d="M27.7569 12.5519H26.75V12.5H15.5V17.5H22.5644C22.0714 18.8853 21.1833 20.0957 20.01 20.9819L20.0119 20.9806L23.8806 24.2544C23.6069 24.5031 28 21.25 28 15C28 14.1619 27.9137 13.3438 27.7569 12.5519Z" fill="#1976D2"/>
</svg>
