<svg width="20" height="20" viewBox="0 0 20 20" fill="none" xmlns="http://www.w3.org/2000/svg">
<rect width="19.0567" height="19.0567" rx="5.01493" fill="#4CAF50"/>
<path d="M8.15039 10.9073L10.9086 8.14905" stroke="white" stroke-width="0.752239" stroke-linecap="round" stroke-linejoin="round"/>
<path d="M8.38024 8.60875C8.50718 8.60875 8.61009 8.50584 8.61009 8.3789C8.61009 8.25196 8.50718 8.14905 8.38024 8.14905C8.2533 8.14905 8.15039 8.25196 8.15039 8.3789C8.15039 8.50584 8.2533 8.60875 8.38024 8.60875Z" fill="white" stroke="white" stroke-width="0.752239" stroke-linecap="round" stroke-linejoin="round"/>
<path d="M10.6771 10.9076C10.8041 10.9076 10.907 10.8047 10.907 10.6777C10.907 10.5508 10.8041 10.4479 10.6771 10.4479C10.5502 10.4479 10.4473 10.5508 10.4473 10.6777C10.4473 10.8047 10.5502 10.9076 10.6771 10.9076Z" fill="white" stroke="white" stroke-width="0.752239" stroke-linecap="round" stroke-linejoin="round"/>
<path d="M6.31071 7.32181C6.31071 7.05359 6.41726 6.79635 6.60693 6.60668C6.79659 6.41702 7.05383 6.31047 7.32206 6.31047H7.78176C8.0488 6.31032 8.30494 6.20455 8.49429 6.01626L8.81609 5.69447C8.91007 5.59995 9.02181 5.52495 9.14488 5.47377C9.26795 5.42259 9.39993 5.39624 9.53322 5.39624C9.66651 5.39624 9.79848 5.42259 9.92156 5.47377C10.0446 5.52495 10.1564 5.59995 10.2504 5.69447L10.5721 6.01626C10.7615 6.20455 11.0176 6.31032 11.2847 6.31047H11.7444C12.0126 6.31047 12.2698 6.41702 12.4595 6.60668C12.6492 6.79635 12.7557 7.05359 12.7557 7.32181V7.78151C12.7559 8.04855 12.8616 8.30469 13.0499 8.49405L13.3717 8.81584C13.4662 8.90983 13.5412 9.02157 13.5924 9.14464C13.6436 9.26771 13.67 9.39969 13.67 9.53298C13.67 9.66626 13.6436 9.79824 13.5924 9.92131C13.5412 10.0444 13.4662 10.1561 13.3717 10.2501L13.0499 10.5719C12.8616 10.7613 12.7559 11.0174 12.7557 11.2844V11.7441C12.7557 12.0124 12.6492 12.2696 12.4595 12.4593C12.2698 12.6489 12.0126 12.7555 11.7444 12.7555H11.2847C11.0176 12.7556 10.7615 12.8614 10.5721 13.0497L10.2504 13.3715C10.1564 13.466 10.0446 13.541 9.92156 13.5922C9.79848 13.6434 9.66651 13.6697 9.53322 13.6697C9.39993 13.6697 9.26795 13.6434 9.14488 13.5922C9.02181 13.541 8.91007 13.466 8.81609 13.3715L8.49429 13.0497C8.30494 12.8614 8.0488 12.7556 7.78176 12.7555H7.32206C7.05383 12.7555 6.79659 12.6489 6.60693 12.4593C6.41726 12.2696 6.31071 12.0124 6.31071 11.7441V11.2844C6.31056 11.0174 6.2048 10.7613 6.0165 10.5719L5.69471 10.2501C5.6002 10.1561 5.52519 10.0444 5.47401 9.92131C5.42283 9.79824 5.39648 9.66626 5.39648 9.53298C5.39648 9.39969 5.42283 9.26771 5.47401 9.14464C5.52519 9.02157 5.6002 8.90983 5.69471 8.81584L6.0165 8.49405C6.2048 8.30469 6.31056 8.04855 6.31071 7.78151V7.32181" stroke="white" stroke-width="0.752239" stroke-linecap="round" stroke-linejoin="round"/>
</svg>
