<svg width="20" height="16" viewBox="0 0 20 16" fill="none" xmlns="http://www.w3.org/2000/svg">
<path d="M13 15H7M13 15V10.5V4.6C13 4.44087 12.9368 4.28826 12.8243 4.17574C12.7117 4.06321 12.5591 4 12.4 4H7.6C7.44087 4 7.28826 4.06321 7.17574 4.17574C7.06321 4.28826 7 4.44087 7 4.6V15M13 15H18.4C18.5591 15 18.7117 14.9368 18.8243 14.8243C18.9368 14.7117 19 14.5591 19 14.4V11.1C19 10.9409 18.9368 10.7883 18.8243 10.6757C18.7117 10.5632 18.5591 10.5 18.4 10.5H13.6C13.4409 10.5 13.2883 10.5632 13.1757 10.6757C13.0632 10.7883 13 10.9409 13 11.1V15ZM7 15V9.1C7 8.94087 6.93679 8.78826 6.82426 8.67574C6.71174 8.56321 6.55913 8.5 6.4 8.5H1.6C1.44087 8.5 1.28826 8.56321 1.17574 8.67574C1.06321 8.78826 1 8.94087 1 9.1V14.4C1 14.5591 1.06321 14.7117 1.17574 14.8243C1.28826 14.9368 1.44087 15 1.6 15H7ZM13 1H7" stroke="#9896A3" stroke-width="1.5" stroke-linecap="round" stroke-linejoin="round"/>
</svg>
