<svg width="11" height="20" viewBox="0 0 11 20" fill="none" xmlns="http://www.w3.org/2000/svg">
<path d="M10.6205 0.990037C10.5044 0.873629 10.3664 0.781272 10.2146 0.718256C10.0627 0.65524 9.89991 0.622803 9.73549 0.622803C9.57107 0.622803 9.40827 0.65524 9.25641 0.718256C9.10454 0.781272 8.96661 0.873629 8.85049 0.990037L0.540491 9.30004C0.447788 9.39255 0.37424 9.50244 0.324059 9.62341C0.273877 9.74439 0.248047 9.87407 0.248047 10.005C0.248047 10.136 0.273877 10.2657 0.324059 10.3867C0.37424 10.5076 0.447788 10.6175 0.540491 10.71L8.85049 19.02C9.34049 19.51 10.1305 19.51 10.6205 19.02C11.1105 18.53 11.1105 17.74 10.6205 17.25L3.38049 10L10.6305 2.75004C11.1105 2.27004 11.1105 1.47004 10.6205 0.990037Z" fill="#4F4F4F"/>
</svg>
