<svg width="28" height="28" viewBox="0 0 28 28" fill="none" xmlns="http://www.w3.org/2000/svg">
<rect x="0.626953" y="0.963867" width="26.6234" height="26.6234" rx="4.4837" fill="#13C999" fill-opacity="0.15"/>
<path d="M15.4178 19.7773C15.4161 20.249 15.2276 20.7007 14.8935 21.0336C14.5594 21.3664 14.107 21.5533 13.6354 21.5533C13.165 21.5504 12.7144 21.3636 12.3798 21.0329C12.0473 20.6995 11.8602 20.2482 11.8594 19.7773" stroke="#13C999" stroke-width="1.07609" stroke-linecap="round" stroke-linejoin="round"/>
<path d="M12.0459 8.82854C12.0459 8.40755 12.2131 8.00381 12.5108 7.70613C12.8085 7.40845 13.2122 7.24121 13.6332 7.24121C14.0542 7.24121 14.4579 7.40845 14.7556 7.70613C15.0533 8.00381 15.2205 8.40755 15.2205 8.82854" stroke="#13C999" stroke-width="1.07609" stroke-linecap="round" stroke-linejoin="round"/>
<path d="M16.6924 9.82405C15.8244 9.1391 14.7395 8.78825 13.6348 8.83523C13.0062 8.81164 12.3793 8.91491 11.7914 9.1389C11.2036 9.36289 10.6669 9.70299 10.2134 10.1389C9.75982 10.5748 9.39874 11.0977 9.15167 11.6762C8.90459 12.2547 8.77659 12.877 8.77528 13.5061V13.5647C8.78315 14.6449 8.51917 15.7098 8.00764 16.6612C7.86099 16.9547 7.79067 17.2803 7.80318 17.6081C7.81568 17.9359 7.91061 18.2553 8.0792 18.5367C8.24778 18.8181 8.48458 19.0525 8.7677 19.2182C9.05082 19.3838 9.37114 19.4755 9.69905 19.4846H17.5641C17.8905 19.4761 18.2095 19.3858 18.4919 19.2221C18.7744 19.0583 19.0112 18.8264 19.1808 18.5474C19.3504 18.2684 19.4473 17.9514 19.4626 17.6253C19.4779 17.2992 19.4112 16.9744 19.2685 16.6808C18.757 15.7293 18.493 14.6644 18.5009 13.5842" stroke="#13C999" stroke-width="1.07609" stroke-linecap="round" stroke-linejoin="round"/>
<path d="M18.1548 13.4799C19.2326 13.4799 20.1064 12.6061 20.1064 11.5283C20.1064 10.4504 19.2326 9.57666 18.1548 9.57666C17.0769 9.57666 16.2031 10.4504 16.2031 11.5283C16.2031 12.6061 17.0769 13.4799 18.1548 13.4799Z" stroke="#13C999" stroke-width="1.07609" stroke-linecap="round" stroke-linejoin="round"/>
</svg>
