<svg width="22" height="22" viewBox="0 0 22 22" fill="none" xmlns="http://www.w3.org/2000/svg">
<g opacity="0.8">
<rect x="0.34" y="0.34" width="21.32" height="21.32" rx="9.18" stroke="#4D586B" stroke-width="0.68"/>
<path fill-rule="evenodd" clip-rule="evenodd" d="M13.7048 9.70774C13.7048 10.2143 13.8387 10.5129 14.1333 10.8569C14.3566 11.1104 14.428 11.4358 14.428 11.7888C14.428 12.1414 14.3121 12.4761 14.08 12.7479C13.7762 13.0737 13.3476 13.2817 12.9103 13.3178C12.2766 13.3719 11.6424 13.4174 10.9998 13.4174C10.3568 13.4174 9.72309 13.3901 9.08934 13.3178C8.6516 13.2817 8.22308 13.0737 7.91963 12.7479C7.68754 12.4761 7.57129 12.1414 7.57129 11.7888C7.57129 11.4358 7.64304 11.1104 7.86592 10.8569C8.16977 10.5129 8.29484 10.2143 8.29484 9.70774V9.53591C8.29484 8.85752 8.464 8.41392 8.81234 7.97967C9.33025 7.34637 10.1604 6.96655 10.9818 6.96655H11.0179C11.8569 6.96655 12.7139 7.36465 13.223 8.02517C13.5533 8.45048 13.7048 8.87539 13.7048 9.53591V9.70774ZM9.81914 14.2511C9.81914 14.0479 10.0055 13.9549 10.1779 13.9151C10.3795 13.8725 11.6082 13.8725 11.8098 13.9151C11.9822 13.9549 12.1686 14.0479 12.1686 14.2511C12.1585 14.4444 12.0451 14.6158 11.8884 14.7247C11.6851 14.8831 11.4466 14.9835 11.1973 15.0196C11.0594 15.0375 10.9239 15.0379 10.7908 15.0196C10.5411 14.9835 10.3026 14.8831 10.0997 14.7243C9.9426 14.6158 9.82916 14.4444 9.81914 14.2511Z" fill="#4D586B"/>
</g>
</svg>
