<svg width="17" height="20" viewBox="0 0 17 20" fill="none" xmlns="http://www.w3.org/2000/svg">
<path opacity="0.4" d="M14.7411 7.26929C14.3272 7.26929 13.779 7.26012 13.0964 7.26012C11.4318 7.26012 10.0631 5.88237 10.0631 4.20212V1.25412C10.0631 1.02221 9.87793 0.833374 9.6483 0.833374H4.79966C2.53691 0.833374 0.708008 2.69054 0.708008 4.96662V14.8437C0.708008 17.2316 2.62404 19.1667 4.98845 19.1667H12.2088C14.4633 19.1667 16.2913 17.3215 16.2913 15.0435V7.68179C16.2913 7.44896 16.1071 7.26104 15.8765 7.26196C15.489 7.26471 15.0243 7.26929 14.7411 7.26929Z" fill="#56555C"/>
<path opacity="0.4" d="M12.2438 1.35342C11.9697 1.06834 11.4912 1.26451 11.4912 1.65959V4.07684C11.4912 5.09067 12.3263 5.92484 13.3401 5.92484C13.979 5.93217 14.8664 5.93401 15.6199 5.93217C16.0058 5.93126 16.202 5.47017 15.9343 5.19151C14.9672 4.18592 13.2356 2.38376 12.2438 1.35342Z" fill="#56555C"/>
<path d="M10.7164 12.6517C11.0931 12.6517 11.3993 12.9579 11.3993 13.3347C11.3993 13.7114 11.0931 14.0167 10.7164 14.0167H5.72604C5.34929 14.0167 5.04404 13.7114 5.04404 13.3347C5.04404 12.9579 5.34929 12.6517 5.72604 12.6517H10.7164ZM8.82886 8.07373C9.20561 8.07373 9.51178 8.3799 9.51178 8.75665C9.51178 9.1334 9.20561 9.43865 8.82886 9.43865H5.72595C5.3492 9.43865 5.04395 9.1334 5.04395 8.75665C5.04395 8.3799 5.3492 8.07373 5.72595 8.07373H8.82886Z" fill="#56555C"/>
</svg>
