<svg width="20" height="21" viewBox="0 0 20 21" fill="none" xmlns="http://www.w3.org/2000/svg">
<path fill-rule="evenodd" clip-rule="evenodd" d="M9.61154 0.5C4.30323 0.5 0 4.70819 0 9.89926C0 15.0903 4.30323 19.2985 9.61154 19.2985C11.8819 19.2985 13.9684 18.5287 15.613 17.2415L18.7371 20.2886L18.8202 20.3586C19.1102 20.5685 19.5214 20.5446 19.7839 20.2873C20.0726 20.0043 20.072 19.5459 19.7825 19.2636L16.6952 16.2523C18.2649 14.5794 19.2231 12.3487 19.2231 9.89926C19.2231 4.70819 14.9198 0.5 9.61154 0.5ZM9.61154 1.94774C14.1022 1.94774 17.7426 5.50776 17.7426 9.89926C17.7426 14.2908 14.1022 17.8508 9.61154 17.8508C5.12086 17.8508 1.48044 14.2908 1.48044 9.89926C1.48044 5.50776 5.12086 1.94774 9.61154 1.94774Z" fill="#60708F"/>
</svg>
