<svg width="22" height="22" viewBox="0 0 22 22" fill="none" xmlns="http://www.w3.org/2000/svg">
<path d="M10.9997 9.625C10.0272 9.625 9.09458 9.26284 8.40695 8.61818C7.71932 7.97352 7.33301 7.09918 7.33301 6.1875C7.33301 5.27582 7.71932 4.40148 8.40695 3.75682C9.09458 3.11216 10.0272 2.75 10.9997 2.75C11.9721 2.75 12.9048 3.11216 13.5924 3.75682C14.28 4.40148 14.6663 5.27582 14.6663 6.1875C14.6663 7.09918 14.28 7.97352 13.5924 8.61818C12.9048 9.26284 11.9721 9.625 10.9997 9.625ZM10.9997 4.125C9.78234 4.125 8.79967 5.04625 8.79967 6.1875C8.79967 7.32875 9.78234 8.25 10.9997 8.25C12.217 8.25 13.1997 7.32875 13.1997 6.1875C13.1997 5.04625 12.217 4.125 10.9997 4.125Z" fill="#9896A3"/>
<path d="M19.8 15.125C19.3893 15.125 19.0667 14.8225 19.0667 14.4375C19.0667 14.0525 19.3893 13.75 19.8 13.75C20.2107 13.75 20.5333 13.4475 20.5333 13.0625C20.5333 12.1508 20.147 11.2765 19.4594 10.6318C18.7718 9.98716 17.8391 9.625 16.8667 9.625H15.4C14.9893 9.625 14.6667 9.3225 14.6667 8.9375C14.6667 8.5525 14.9893 8.25 15.4 8.25C16.6173 8.25 17.6 7.32875 17.6 6.1875C17.6 5.04625 16.6173 4.125 15.4 4.125C14.9893 4.125 14.6667 3.8225 14.6667 3.4375C14.6667 3.0525 14.9893 2.75 15.4 2.75C16.3725 2.75 17.3051 3.11216 17.9927 3.75682C18.6804 4.40148 19.0667 5.27582 19.0667 6.1875C19.0667 7.04 18.744 7.81 18.1867 8.415C20.372 8.965 22 10.835 22 13.0625C22 14.2037 21.0173 15.125 19.8 15.125ZM2.2 15.125C0.982667 15.125 0 14.2037 0 13.0625C0 10.835 1.61333 8.965 3.81333 8.415C3.27067 7.81 2.93333 7.04 2.93333 6.1875C2.93333 5.27582 3.31964 4.40148 4.00728 3.75682C4.69491 3.11216 5.62754 2.75 6.6 2.75C7.01067 2.75 7.33333 3.0525 7.33333 3.4375C7.33333 3.8225 7.01067 4.125 6.6 4.125C5.38267 4.125 4.4 5.04625 4.4 6.1875C4.4 7.32875 5.38267 8.25 6.6 8.25C7.01067 8.25 7.33333 8.5525 7.33333 8.9375C7.33333 9.3225 7.01067 9.625 6.6 9.625H5.13333C4.16087 9.625 3.22824 9.98716 2.54061 10.6318C1.85298 11.2765 1.46667 12.1508 1.46667 13.0625C1.46667 13.4475 1.78933 13.75 2.2 13.75C2.61067 13.75 2.93333 14.0525 2.93333 14.4375C2.93333 14.8225 2.61067 15.125 2.2 15.125ZM15.4 19.25H6.6C5.38267 19.25 4.4 18.3287 4.4 17.1875V15.8125C4.4 13.1588 6.70267 11 9.53333 11H12.4667C15.2973 11 17.6 13.1588 17.6 15.8125V17.1875C17.6 18.3287 16.6173 19.25 15.4 19.25ZM9.53333 12.375C8.56087 12.375 7.62824 12.7372 6.94061 13.3818C6.25297 14.0265 5.86667 14.9008 5.86667 15.8125V17.1875C5.86667 17.5725 6.18933 17.875 6.6 17.875H15.4C15.8107 17.875 16.1333 17.5725 16.1333 17.1875V15.8125C16.1333 14.9008 15.747 14.0265 15.0594 13.3818C14.3718 12.7372 13.4391 12.375 12.4667 12.375H9.53333Z" fill="#9896A3"/>
</svg>
