<svg width="21" height="21" viewBox="0 0 21 21" fill="none" xmlns="http://www.w3.org/2000/svg">
<rect x="0.970703" y="0.97168" width="19.0567" height="19.0567" rx="5.01493" fill="#F9CA18"/>
<path d="M9.12109 11.8789L11.8793 9.12073" stroke="white" stroke-width="0.752239" stroke-linecap="round" stroke-linejoin="round"/>
<path d="M9.35094 9.58043C9.47789 9.58043 9.58079 9.47752 9.58079 9.35058C9.58079 9.22364 9.47789 9.12073 9.35094 9.12073C9.224 9.12073 9.12109 9.22364 9.12109 9.35058C9.12109 9.47752 9.224 9.58043 9.35094 9.58043Z" fill="white" stroke="white" stroke-width="0.752239" stroke-linecap="round" stroke-linejoin="round"/>
<path d="M11.6478 11.8793C11.7748 11.8793 11.8777 11.7763 11.8777 11.6494C11.8777 11.5225 11.7748 11.4196 11.6478 11.4196C11.5209 11.4196 11.418 11.5225 11.418 11.6494C11.418 11.7763 11.5209 11.8793 11.6478 11.8793Z" fill="white" stroke="white" stroke-width="0.752239" stroke-linecap="round" stroke-linejoin="round"/>
<path d="M7.28142 8.29349C7.28142 8.02527 7.38797 7.76803 7.57763 7.57836C7.76729 7.3887 8.02453 7.28215 8.29276 7.28215H8.75246C9.0195 7.28199 9.27564 7.17623 9.465 6.98794L9.78679 6.66615C9.88077 6.57163 9.99251 6.49663 10.1156 6.44545C10.2387 6.39427 10.3706 6.36792 10.5039 6.36792C10.6372 6.36792 10.7692 6.39427 10.8923 6.44545C11.0153 6.49663 11.1271 6.57163 11.2211 6.66615L11.5428 6.98794C11.7322 7.17623 11.9883 7.28199 12.2554 7.28215H12.7151C12.9833 7.28215 13.2406 7.3887 13.4302 7.57836C13.6199 7.76803 13.7264 8.02527 13.7264 8.29349V8.75319C13.7266 9.02023 13.8323 9.27637 14.0206 9.46573L14.3424 9.78752C14.4369 9.88151 14.5119 9.99325 14.5631 10.1163C14.6143 10.2394 14.6407 10.3714 14.6407 10.5047C14.6407 10.6379 14.6143 10.7699 14.5631 10.893C14.5119 11.0161 14.4369 11.1278 14.3424 11.2218L14.0206 11.5436C13.8323 11.7329 13.7266 11.9891 13.7264 12.2561V12.7158C13.7264 12.984 13.6199 13.2413 13.4302 13.4309C13.2406 13.6206 12.9833 13.7272 12.7151 13.7272H12.2554C11.9883 13.7273 11.7322 13.8331 11.5428 14.0214L11.2211 14.3432C11.1271 14.4377 11.0153 14.5127 10.8923 14.5639C10.7692 14.615 10.6372 14.6414 10.5039 14.6414C10.3706 14.6414 10.2387 14.615 10.1156 14.5639C9.99251 14.5127 9.88077 14.4377 9.78679 14.3432L9.465 14.0214C9.27564 13.8331 9.0195 13.7273 8.75246 13.7272H8.29276C8.02453 13.7272 7.76729 13.6206 7.57763 13.4309C7.38797 13.2413 7.28142 12.984 7.28142 12.7158V12.2561C7.28126 11.9891 7.1755 11.7329 6.98721 11.5436L6.66542 11.2218C6.5709 11.1278 6.4959 11.0161 6.44472 10.893C6.39354 10.7699 6.36719 10.6379 6.36719 10.5047C6.36719 10.3714 6.39354 10.2394 6.44472 10.1163C6.4959 9.99325 6.5709 9.88151 6.66542 9.78752L6.98721 9.46573C7.1755 9.27637 7.28126 9.02023 7.28142 8.75319V8.29349" stroke="white" stroke-width="0.752239" stroke-linecap="round" stroke-linejoin="round"/>
</svg>
